<svg xmlns="http://www.w3.org/2000/svg" viewBox="0 0 320 200" fill="none">
  <rect width="320" height="200" fill="#f1f5f9"/>
  <!-- Car body -->
  <path
    d="M48 118h224l-8-28c-4-14-18-24-34-24H90c-16 0-30 10-34 24l-8 28z"
    fill="#1b87e6"
  />
  <path
    d="M56 118h208v18c0 8-6 14-14 14H70c-8 0-14-6-14-14v-18z"
    fill="#1565b8"
  />
  <path d="M88 66h48l10 28H78l10-28z" fill="#90caf9"/>
  <path d="M184 66h48l10 28h-58l10-28z" fill="#90caf9"/>
  <circle cx="92" cy="136" r="18" fill="#334155"/>
  <circle cx="92" cy="136" r="10" fill="#64748b"/>
  <circle cx="228" cy="136" r="18" fill="#334155"/>
  <circle cx="228" cy="136" r="10" fill="#64748b"/>
  <path d="M40 118h240v6H40z" fill="#0d47a1"/>
  <!-- Roof hotspot (no icon in hover preview) -->
  <rect x="148" y="72" width="52" height="28" rx="3" fill="#22c55e" fill-opacity="0.35" stroke="#16a34a" stroke-width="1.5"/>
</svg>
